{
    "asset" : {
        "generator" : "Khronos glTF Blender I/O v3.3.36",
        "version" : "2.0"
    },
    "scene" : 0,
    "scenes" : [
        {
            "name" : "Scene",
            "nodes" : [
                0
            ]
        }
    ],
    "nodes" : [
        {
            "extras" : {
                "TLM_ObjectProperties" : {}
            },
            "mesh" : 0,
            "name" : "Object_2",
            "rotation" : [
                -0.5,
                0.5,
                -0.5,
                0.5
            ],
            "scale" : [
                0.005111949983984232,
                0.005111949983984232,
                0.005111949983984232
            ]
        }
    ],
    "materials" : [
        {
            "doubleSided" : true,
            "extras" : {
                "arm_cached" : 0
            },
            "name" : "material_0",
            "occlusionTexture" : {
                "index" : 0
            },
            "pbrMetallicRoughness" : {}
        }
    ],
    "meshes" : [
        {
            "extras" : {
                "arm_cached" : 0
            },
            "name" : "Object_0",
            "primitives" : [
                {
                    "attributes" : {
                        "POSITION" : 0,
                        "NORMAL" : 1,
                        "TEXCOORD_0" : 2
                    },
                    "indices" : 3,
                    "material" : 0
                }
            ]
        }
    ],
    "textures" : [
        {
            "sampler" : 0,
            "source" : 0
        }
    ],
    "images" : [
        {
            "bufferView" : 4,
            "mimeType" : "image/png",
            "name" : "material_0_occlusion"
        }
    ],
    "accessors" : [
        {
            "bufferView" : 0,
            "componentType" : 5126,
            "count" : 26493,
            "max" : [
                6.243902206420898,
                10.1279296875,
                15.979499816894531
            ],
            "min" : [
                -7.441769123077393,
                -10.622642517089844,
                -14.233165740966797
            ],
            "type" : "VEC3"
        },
        {
            "bufferView" : 1,
            "componentType" : 5126,
            "count" : 26493,
            "type" : "VEC3"
        },
        {
            "bufferView" : 2,
            "componentType" : 5126,
            "count" : 26493,
            "type" : "VEC2"
        },
        {
            "bufferView" : 3,
            "componentType" : 5123,
            "count" : 118092,
            "type" : "SCALAR"
        }
    ],
    "bufferViews" : [
        {
            "buffer" : 0,
            "byteLength" : 317916,
            "byteOffset" : 0,
            "target" : 34962
        },
        {
            "buffer" : 0,
            "byteLength" : 317916,
            "byteOffset" : 317916,
            "target" : 34962
        },
        {
            "buffer" : 0,
            "byteLength" : 211944,
            "byteOffset" : 635832,
            "target" : 34962
        },
        {
            "buffer" : 0,
            "byteLength" : 236184,
            "byteOffset" : 847776,
            "target" : 34963
        },
        {
            "buffer" : 0,
            "byteLength" : 1659852,
            "byteOffset" : 1083960
        }
    ],
    "samplers" : [
        {
            "magFilter" : 9729,
            "minFilter" : 9987
        }
    ],
    "buffers" : [
        {
            "byteLength" : 2743812,
            "uri" : "data:application/octet-stream;base64,"
        }
    ]
}
