{
    "asset" : {
        "generator" : "Khronos glTF Blender I/O v3.3.36",
        "version" : "2.0"
    },
    "scene" : 0,
    "scenes" : [
        {
            "name" : "Scene",
            "nodes" : [
                10
            ]
        }
    ],
    "nodes" : [
        {
            "mesh" : 0,
            "name" : "blue_lamps"
        },
        {
            "mesh" : 1,
            "name" : "lamps"
        },
        {
            "extras" : {
                "TLM_ObjectProperties" : {}
            },
            "mesh" : 2,
            "name" : "lamps2"
        },
        {
            "mesh" : 3,
            "name" : "mirrors"
        },
        {
            "mesh" : 4,
            "name" : "Object001"
        },
        {
            "extras" : {
                "TLM_ObjectProperties" : {}
            },
            "mesh" : 5,
            "name" : "Plastic"
        },
        {
            "mesh" : 6,
            "name" : "wheel_fl",
            "translation" : [
                -22.575510025024414,
                8.556227684020996,
                -61.88620376586914
            ]
        },
        {
            "mesh" : 7,
            "name" : "wheel_fr",
            "translation" : [
                22.575519561767578,
                8.556227684020996,
                -61.886199951171875
            ]
        },
        {
            "mesh" : 8,
            "name" : "wheel_rl",
            "translation" : [
                -21.66806411743164,
                8.556235313415527,
                39.13868713378906
            ]
        },
        {
            "extras" : {
                "TLM_ObjectProperties" : {}
            },
            "mesh" : 9,
            "name" : "wheel_rr",
            "translation" : [
                21.668071746826172,
                8.556235313415527,
                39.13869094848633
            ]
        },
        {
            "children" : [
                0,
                1,
                2,
                3,
                4,
                5,
                6,
                7,
                8,
                9
            ],
            "extras" : {
                "TLM_ObjectProperties" : {}
            },
            "mesh" : 10,
            "name" : "ambulance",
            "scale" : [
                0.03999999910593033,
                0.041923508048057556,
                0.029945366084575653
            ]
        }
    ],
    "materials" : [
        {
            "extras" : {
                "arm_cached" : 0
            },
            "name" : "Lamps",
            "pbrMetallicRoughness" : {}
        },
        {
            "extras" : {
                "arm_cached" : 0
            },
            "name" : "01 - Default",
            "pbrMetallicRoughness" : {
                "baseColorFactor" : [
                    0.16862745583057404,
                    0.1764705926179886,
                    0.16862745583057404,
                    1
                ],
                "metallicFactor" : 0
            }
        },
        {
            "alphaMode" : "BLEND",
            "extras" : {
                "arm_cached" : 0
            },
            "name" : "Glass",
            "pbrMetallicRoughness" : {}
        },
        {
            "extras" : {
                "arm_cached" : 0
            },
            "name" : "Plastic",
            "pbrMetallicRoughness" : {}
        },
        {
            "extras" : {
                "arm_cached" : 0
            },
            "name" : "Paint",
            "pbrMetallicRoughness" : {}
        }
    ],
    "meshes" : [
        {
            "extras" : {
                "arm_cached" : 0
            },
            "name" : "blue_lamps",
            "primitives" : [
                {
                    "attributes" : {
                        "POSITION" : 0,
                        "NORMAL" : 1,
                        "TEXCOORD_0" : 2
                    },
                    "indices" : 3,
                    "material" : 0
                }
            ]
        },
        {
            "extras" : {
                "arm_cached" : 0
            },
            "name" : "lamps",
            "primitives" : [
                {
                    "attributes" : {
                        "POSITION" : 4,
                        "NORMAL" : 5,
                        "TEXCOORD_0" : 6
                    },
                    "indices" : 7,
                    "material" : 0
                }
            ]
        },
        {
            "extras" : {
                "arm_cached" : 0
            },
            "name" : "lamps2",
            "primitives" : [
                {
                    "attributes" : {
                        "POSITION" : 8,
                        "NORMAL" : 9,
                        "TEXCOORD_0" : 10
                    },
                    "indices" : 11,
                    "material" : 0
                }
            ]
        },
        {
            "extras" : {
                "arm_cached" : 0
            },
            "name" : "mirrors",
            "primitives" : [
                {
                    "attributes" : {
                        "POSITION" : 12,
                        "NORMAL" : 13,
                        "TEXCOORD_0" : 14
                    },
                    "indices" : 15,
                    "material" : 1
                }
            ]
        },
        {
            "extras" : {
                "arm_cached" : 0
            },
            "name" : "Object001",
            "primitives" : [
                {
                    "attributes" : {
                        "POSITION" : 16,
                        "NORMAL" : 17,
                        "TEXCOORD_0" : 18
                    },
                    "indices" : 19,
                    "material" : 2
                }
            ]
        },
        {
            "extras" : {
                "arm_cached" : 0
            },
            "name" : "Plastic",
            "primitives" : [
                {
                    "attributes" : {
                        "POSITION" : 20,
                        "NORMAL" : 21,
                        "TEXCOORD_0" : 22
                    },
                    "indices" : 23,
                    "material" : 3
                }
            ]
        },
        {
            "extras" : {
                "arm_cached" : 0
            },
            "name" : "wheel_fl",
            "primitives" : [
                {
                    "attributes" : {
                        "POSITION" : 24,
                        "NORMAL" : 25,
                        "TEXCOORD_0" : 26
                    },
                    "indices" : 27,
                    "material" : 3
                }
            ]
        },
        {
            "extras" : {
                "arm_cached" : 0
            },
            "name" : "wheel_fr",
            "primitives" : [
                {
                    "attributes" : {
                        "POSITION" : 28,
                        "NORMAL" : 29,
                        "TEXCOORD_0" : 30
                    },
                    "indices" : 31,
                    "material" : 3
                }
            ]
        },
        {
            "extras" : {
                "arm_cached" : 0
            },
            "name" : "wheel_rl",
            "primitives" : [
                {
                    "attributes" : {
                        "POSITION" : 32,
                        "NORMAL" : 33,
                        "TEXCOORD_0" : 34
                    },
                    "indices" : 35,
                    "material" : 3
                }
            ]
        },
        {
            "extras" : {
                "arm_cached" : 0
            },
            "name" : "wheel_rr",
            "primitives" : [
                {
                    "attributes" : {
                        "POSITION" : 36,
                        "NORMAL" : 37,
                        "TEXCOORD_0" : 38
                    },
                    "indices" : 39,
                    "material" : 3
                }
            ]
        },
        {
            "extras" : {
                "arm_cached" : 0
            },
            "name" : "ambulance",
            "primitives" : [
                {
                    "attributes" : {
                        "POSITION" : 40,
                        "NORMAL" : 41,
                        "TEXCOORD_0" : 42
                    },
                    "indices" : 43,
                    "material" : 4
                }
            ]
        }
    ],
    "accessors" : [
        {
            "bufferView" : 0,
            "componentType" : 5126,
            "count" : 64,
            "max" : [
                16.03412437438965,
                68.8638916015625,
                -12.504142761230469
            ],
            "min" : [
                -16.034130096435547,
                65.39752197265625,
                -19.739784240722656
            ],
            "type" : "VEC3"
        },
        {
            "bufferView" : 1,
            "componentType" : 5126,
            "count" : 64,
            "type" : "VEC3"
        },
        {
            "bufferView" : 2,
            "componentType" : 5126,
            "count" : 64,
            "type" : "VEC2"
        },
        {
            "bufferView" : 3,
            "componentType" : 5123,
            "count" : 228,
            "type" : "SCALAR"
        },
        {
            "bufferView" : 4,
            "componentType" : 5126,
            "count" : 124,
            "max" : [
                24.75534439086914,
                30.56670379638672,
                74.09866333007812
            ],
            "min" : [
                -24.75534439086914,
                14.280665397644043,
                -78.64350128173828
            ],
            "type" : "VEC3"
        },
        {
            "bufferView" : 5,
            "componentType" : 5126,
            "count" : 124,
            "type" : "VEC3"
        },
        {
            "bufferView" : 6,
            "componentType" : 5126,
            "count" : 124,
            "type" : "VEC2"
        },
        {
            "bufferView" : 7,
            "componentType" : 5123,
            "count" : 420,
            "type" : "SCALAR"
        },
        {
            "bufferView" : 8,
            "componentType" : 5126,
            "count" : 66,
            "max" : [
                24.828777313232422,
                24.747713088989258,
                -63.72986602783203
            ],
            "min" : [
                -24.828781127929688,
                14.280665397644043,
                -77.07257080078125
            ],
            "type" : "VEC3"
        },
        {
            "bufferView" : 9,
            "componentType" : 5126,
            "count" : 66,
            "type" : "VEC3"
        },
        {
            "bufferView" : 10,
            "componentType" : 5126,
            "count" : 66,
            "type" : "VEC2"
        },
        {
            "bufferView" : 11,
            "componentType" : 5123,
            "count" : 234,
            "type" : "SCALAR"
        },
        {
            "bufferView" : 12,
            "componentType" : 5126,
            "count" : 60,
            "max" : [
                29.910673141479492,
                39.070308685302734,
                -58.1114387512207
            ],
            "min" : [
                -29.91067886352539,
                32.2438850402832,
                -58.7479362487793
            ],
            "type" : "VEC3"
        },
        {
            "bufferView" : 13,
            "componentType" : 5126,
            "count" : 60,
            "type" : "VEC3"
        },
        {
            "bufferView" : 14,
            "componentType" : 5126,
            "count" : 60,
            "type" : "VEC2"
        },
        {
            "bufferView" : 15,
            "componentType" : 5123,
            "count" : 60,
            "type" : "SCALAR"
        },
        {
            "bufferView" : 16,
            "componentType" : 5126,
            "count" : 414,
            "max" : [
                23.38850212097168,
                49.618194580078125,
                -36.67485809326172
            ],
            "min" : [
                -23.388507843017578,
                33.00382995605469,
                -64.68603515625
            ],
            "type" : "VEC3"
        },
        {
            "bufferView" : 17,
            "componentType" : 5126,
            "count" : 414,
            "type" : "VEC3"
        },
        {
            "bufferView" : 18,
            "componentType" : 5126,
            "count" : 414,
            "type" : "VEC2"
        },
        {
            "bufferView" : 19,
            "componentType" : 5123,
            "count" : 1494,
            "type" : "SCALAR"
        },
        {
            "bufferView" : 20,
            "componentType" : 5126,
            "count" : 5732,
            "max" : [
                30.08393669128418,
                69.245849609375,
                76.02757263183594
            ],
            "min" : [
                -30.083940505981445,
                5.754629611968994,
                -81.25470733642578
            ],
            "type" : "VEC3"
        },
        {
            "bufferView" : 21,
            "componentType" : 5126,
            "count" : 5732,
            "type" : "VEC3"
        },
        {
            "bufferView" : 22,
            "componentType" : 5126,
            "count" : 5732,
            "type" : "VEC2"
        },
        {
            "bufferView" : 23,
            "componentType" : 5123,
            "count" : 11244,
            "type" : "SCALAR"
        },
        {
            "bufferView" : 24,
            "componentType" : 5126,
            "count" : 530,
            "max" : [
                2.701719284057617,
                8.395317077636719,
                8.524818420410156
            ],
            "min" : [
                -2.7017242908477783,
                -8.395317077636719,
                -8.524833679199219
            ],
            "type" : "VEC3"
        },
        {
            "bufferView" : 25,
            "componentType" : 5126,
            "count" : 530,
            "type" : "VEC3"
        },
        {
            "bufferView" : 26,
            "componentType" : 5126,
            "count" : 530,
            "type" : "VEC2"
        },
        {
            "bufferView" : 27,
            "componentType" : 5123,
            "count" : 1500,
            "type" : "SCALAR"
        },
        {
            "bufferView" : 28,
            "componentType" : 5126,
            "count" : 495,
            "max" : [
                2.7017178535461426,
                8.395318031311035,
                8.524818420410156
            ],
            "min" : [
                -2.7017252445220947,
                -8.395316123962402,
                -8.524833679199219
            ],
            "type" : "VEC3"
        },
        {
            "bufferView" : 29,
            "componentType" : 5126,
            "count" : 495,
            "type" : "VEC3"
        },
        {
            "bufferView" : 30,
            "componentType" : 5126,
            "count" : 495,
            "type" : "VEC2"
        },
        {
            "bufferView" : 31,
            "componentType" : 5123,
            "count" : 1500,
            "type" : "SCALAR"
        },
        {
            "bufferView" : 32,
            "componentType" : 5126,
            "count" : 1127,
            "max" : [
                5.371667385101318,
                8.395322799682617,
                8.524826049804688
            ],
            "min" : [
                -5.371670246124268,
                -8.39531135559082,
                -8.524826049804688
            ],
            "type" : "VEC3"
        },
        {
            "bufferView" : 33,
            "componentType" : 5126,
            "count" : 1127,
            "type" : "VEC3"
        },
        {
            "bufferView" : 34,
            "componentType" : 5126,
            "count" : 1127,
            "type" : "VEC2"
        },
        {
            "bufferView" : 35,
            "componentType" : 5123,
            "count" : 2376,
            "type" : "SCALAR"
        },
        {
            "bufferView" : 36,
            "componentType" : 5126,
            "count" : 1133,
            "max" : [
                5.371666431427002,
                8.395323753356934,
                8.524826049804688
            ],
            "min" : [
                -5.371670246124268,
                -8.39531135559082,
                -8.524826049804688
            ],
            "type" : "VEC3"
        },
        {
            "bufferView" : 37,
            "componentType" : 5126,
            "count" : 1133,
            "type" : "VEC3"
        },
        {
            "bufferView" : 38,
            "componentType" : 5126,
            "count" : 1133,
            "type" : "VEC2"
        },
        {
            "bufferView" : 39,
            "componentType" : 5123,
            "count" : 2376,
            "type" : "SCALAR"
        },
        {
            "bufferView" : 40,
            "componentType" : 5126,
            "count" : 3475,
            "max" : [
                25.052101135253906,
                65.78531646728516,
                74.3660888671875
            ],
            "min" : [
                -25.052101135253906,
                7.888057708740234,
                -79.9357681274414
            ],
            "type" : "VEC3"
        },
        {
            "bufferView" : 41,
            "componentType" : 5126,
            "count" : 3475,
            "type" : "VEC3"
        },
        {
            "bufferView" : 42,
            "componentType" : 5126,
            "count" : 3475,
            "type" : "VEC2"
        },
        {
            "bufferView" : 43,
            "componentType" : 5123,
            "count" : 13461,
            "type" : "SCALAR"
        }
    ],
    "bufferViews" : [
        {
            "buffer" : 0,
            "byteLength" : 768,
            "byteOffset" : 0,
            "target" : 34962
        },
        {
            "buffer" : 0,
            "byteLength" : 768,
            "byteOffset" : 768,
            "target" : 34962
        },
        {
            "buffer" : 0,
            "byteLength" : 512,
            "byteOffset" : 1536,
            "target" : 34962
        },
        {
            "buffer" : 0,
            "byteLength" : 456,
            "byteOffset" : 2048,
            "target" : 34963
        },
        {
            "buffer" : 0,
            "byteLength" : 1488,
            "byteOffset" : 2504,
            "target" : 34962
        },
        {
            "buffer" : 0,
            "byteLength" : 1488,
            "byteOffset" : 3992,
            "target" : 34962
        },
        {
            "buffer" : 0,
            "byteLength" : 992,
            "byteOffset" : 5480,
            "target" : 34962
        },
        {
            "buffer" : 0,
            "byteLength" : 840,
            "byteOffset" : 6472,
            "target" : 34963
        },
        {
            "buffer" : 0,
            "byteLength" : 792,
            "byteOffset" : 7312,
            "target" : 34962
        },
        {
            "buffer" : 0,
            "byteLength" : 792,
            "byteOffset" : 8104,
            "target" : 34962
        },
        {
            "buffer" : 0,
            "byteLength" : 528,
            "byteOffset" : 8896,
            "target" : 34962
        },
        {
            "buffer" : 0,
            "byteLength" : 468,
            "byteOffset" : 9424,
            "target" : 34963
        },
        {
            "buffer" : 0,
            "byteLength" : 720,
            "byteOffset" : 9892,
            "target" : 34962
        },
        {
            "buffer" : 0,
            "byteLength" : 720,
            "byteOffset" : 10612,
            "target" : 34962
        },
        {
            "buffer" : 0,
            "byteLength" : 480,
            "byteOffset" : 11332,
            "target" : 34962
        },
        {
            "buffer" : 0,
            "byteLength" : 120,
            "byteOffset" : 11812,
            "target" : 34963
        },
        {
            "buffer" : 0,
            "byteLength" : 4968,
            "byteOffset" : 11932,
            "target" : 34962
        },
        {
            "buffer" : 0,
            "byteLength" : 4968,
            "byteOffset" : 16900,
            "target" : 34962
        },
        {
            "buffer" : 0,
            "byteLength" : 3312,
            "byteOffset" : 21868,
            "target" : 34962
        },
        {
            "buffer" : 0,
            "byteLength" : 2988,
            "byteOffset" : 25180,
            "target" : 34963
        },
        {
            "buffer" : 0,
            "byteLength" : 68784,
            "byteOffset" : 28168,
            "target" : 34962
        },
        {
            "buffer" : 0,
            "byteLength" : 68784,
            "byteOffset" : 96952,
            "target" : 34962
        },
        {
            "buffer" : 0,
            "byteLength" : 45856,
            "byteOffset" : 165736,
            "target" : 34962
        },
        {
            "buffer" : 0,
            "byteLength" : 22488,
            "byteOffset" : 211592,
            "target" : 34963
        },
        {
            "buffer" : 0,
            "byteLength" : 6360,
            "byteOffset" : 234080,
            "target" : 34962
        },
        {
            "buffer" : 0,
            "byteLength" : 6360,
            "byteOffset" : 240440,
            "target" : 34962
        },
        {
            "buffer" : 0,
            "byteLength" : 4240,
            "byteOffset" : 246800,
            "target" : 34962
        },
        {
            "buffer" : 0,
            "byteLength" : 3000,
            "byteOffset" : 251040,
            "target" : 34963
        },
        {
            "buffer" : 0,
            "byteLength" : 5940,
            "byteOffset" : 254040,
            "target" : 34962
        },
        {
            "buffer" : 0,
            "byteLength" : 5940,
            "byteOffset" : 259980,
            "target" : 34962
        },
        {
            "buffer" : 0,
            "byteLength" : 3960,
            "byteOffset" : 265920,
            "target" : 34962
        },
        {
            "buffer" : 0,
            "byteLength" : 3000,
            "byteOffset" : 269880,
            "target" : 34963
        },
        {
            "buffer" : 0,
            "byteLength" : 13524,
            "byteOffset" : 272880,
            "target" : 34962
        },
        {
            "buffer" : 0,
            "byteLength" : 13524,
            "byteOffset" : 286404,
            "target" : 34962
        },
        {
            "buffer" : 0,
            "byteLength" : 9016,
            "byteOffset" : 299928,
            "target" : 34962
        },
        {
            "buffer" : 0,
            "byteLength" : 4752,
            "byteOffset" : 308944,
            "target" : 34963
        },
        {
            "buffer" : 0,
            "byteLength" : 13596,
            "byteOffset" : 313696,
            "target" : 34962
        },
        {
            "buffer" : 0,
            "byteLength" : 13596,
            "byteOffset" : 327292,
            "target" : 34962
        },
        {
            "buffer" : 0,
            "byteLength" : 9064,
            "byteOffset" : 340888,
            "target" : 34962
        },
        {
            "buffer" : 0,
            "byteLength" : 4752,
            "byteOffset" : 349952,
            "target" : 34963
        },
        {
            "buffer" : 0,
            "byteLength" : 41700,
            "byteOffset" : 354704,
            "target" : 34962
        },
        {
            "buffer" : 0,
            "byteLength" : 41700,
            "byteOffset" : 396404,
            "target" : 34962
        },
        {
            "buffer" : 0,
            "byteLength" : 27800,
            "byteOffset" : 438104,
            "target" : 34962
        },
        {
            "buffer" : 0,
            "byteLength" : 26922,
            "byteOffset" : 465904,
            "target" : 34963
        }
    ],
    "buffers" : [
        {
            "byteLength" : 492828,
            "uri" : "data:application/octet-stream;base64,"
        }
    ]
}
